<svg xmlns="http://www.w3.org/2000/svg" width="20.3154" height="21.4385" viewBox="0 3.56543 20.3154 21.4385" fill="none">
  <path d="M10.1777 21.2568C11.2078 21.2569 12.043 22.0962 12.043 23.1309C12.0428 24.1654 11.2077 25.0038 10.1777 25.0039C9.14767 25.0039 8.31267 24.1654 8.3125 23.1309C8.3125 22.0962 9.14756 21.2568 10.1777 21.2568ZM7.20605 18.3828C8.18214 18.3829 8.97363 19.1778 8.97363 20.1582C8.97342 21.1384 8.182 21.9335 7.20605 21.9336C6.22999 21.9336 5.43869 21.1385 5.43848 20.1582C5.43848 19.1777 6.22986 18.3828 7.20605 18.3828ZM13.1367 18.3701C14.1129 18.3701 14.9043 19.165 14.9043 20.1455C14.9043 21.126 14.1129 21.9209 13.1367 21.9209C12.1606 21.9209 11.3692 21.1259 11.3691 20.1455C11.3691 19.165 12.1606 18.3701 13.1367 18.3701ZM10.1641 15.6465C11.0576 15.6465 11.7812 16.374 11.7812 17.2705C11.7811 18.1669 11.0575 18.8945 10.1641 18.8945C9.27074 18.8944 8.54704 18.1668 8.54688 17.2705C8.54694 16.3741 9.27068 15.6466 10.1641 15.6465ZM4.2334 15.623C5.09401 15.623 5.79102 16.324 5.79102 17.1875C5.79075 18.0507 5.09385 18.751 4.2334 18.751C3.37313 18.7508 2.67604 18.0506 2.67578 17.1875C2.67578 16.3242 3.37296 15.6233 4.2334 15.623ZM16.0947 15.5957C16.9553 15.5957 17.6523 16.2967 17.6523 17.1602C17.652 18.0233 16.9551 18.7236 16.0947 18.7236C15.2346 18.7233 14.5375 18.0231 14.5371 17.1602C14.5371 16.2969 15.2344 15.596 16.0947 15.5957ZM13.123 13.1895C13.8856 13.1895 14.5037 13.8103 14.5039 14.5752C14.5039 15.3402 13.8856 15.9609 13.123 15.9609C12.3608 15.9605 11.7432 15.3399 11.7432 14.5752C11.7433 13.8106 12.3609 13.1899 13.123 13.1895ZM7.19141 13.0088C7.95378 13.0088 8.57197 13.6298 8.57227 14.3945C8.57227 15.1595 7.95396 15.7802 7.19141 15.7803C6.42901 15.78 5.81152 15.1594 5.81152 14.3945C5.81181 13.6299 6.42919 13.009 7.19141 13.0088ZM1.26172 12.9482C1.95852 12.9485 2.52323 13.5159 2.52344 14.2148C2.52332 14.9139 1.95858 15.4822 1.26172 15.4824C0.564694 15.4824 0.000119002 14.914 0 14.2148C0.000207137 13.5158 0.564748 12.9483 1.26172 12.9482ZM19.0537 12.9082C19.7507 12.9082 20.3152 13.4757 20.3154 14.1748C20.3154 14.8741 19.7508 15.4424 19.0537 15.4424C18.3567 15.4422 17.792 14.874 17.792 14.1748C17.7922 13.4758 18.3568 12.9084 19.0537 12.9082ZM10.1514 10.7832C10.8153 10.7835 11.3533 11.3243 11.3535 11.9902C11.3535 12.6563 10.8154 13.197 10.1514 13.1973C9.48717 13.1972 8.94922 12.6564 8.94922 11.9902C8.94939 11.3242 9.48728 10.7832 10.1514 10.7832ZM16.0732 10.6357C16.7045 10.6361 17.2155 11.1501 17.2158 11.7832C17.2158 12.4165 16.7046 12.9313 16.0732 12.9316C15.4416 12.9316 14.9297 12.4167 14.9297 11.7832C14.93 11.1499 15.4417 10.6357 16.0732 10.6357ZM4.2207 10.3721C4.85211 10.3722 5.36303 10.8863 5.36328 11.5195C5.36318 12.1529 4.8522 12.6678 4.2207 12.668C3.58923 12.6678 3.07725 12.1529 3.07715 11.5195C3.0774 10.8863 3.58932 10.3722 4.2207 10.3721ZM7.17969 8.37793C7.74515 8.37837 8.20312 8.83912 8.20312 9.40625C8.20294 9.97322 7.74504 10.4341 7.17969 10.4346C6.61396 10.4346 6.15546 9.97349 6.15527 9.40625C6.15527 8.83885 6.61385 8.37793 7.17969 8.37793ZM13.0908 8.36426C13.6564 8.36445 14.1141 8.8254 14.1143 9.39258C14.1142 9.9598 13.6565 10.4207 13.0908 10.4209C12.5251 10.4209 12.0665 9.95989 12.0664 9.39258C12.0665 8.82531 12.5251 8.3643 13.0908 8.36426ZM19.041 7.88965C19.5413 7.88973 19.9463 8.29723 19.9463 8.79883C19.9463 9.30039 19.5413 9.70792 19.041 9.70801C18.5408 9.70787 18.1358 9.30036 18.1357 8.79883C18.1357 8.29727 18.5408 7.88979 19.041 7.88965ZM1.24805 7.73535C1.74816 7.7355 2.1531 8.14317 2.15332 8.64453C2.1533 9.14606 1.74828 9.55356 1.24805 9.55371C0.747807 9.55357 0.342797 9.14607 0.342773 8.64453C0.342993 8.14316 0.747928 7.73549 1.24805 7.73535ZM4.20703 5.97168C4.67465 5.97171 5.05341 6.3526 5.05371 6.82129C5.05371 7.29023 4.67484 7.67184 4.20703 7.67188C3.73938 7.67166 3.36035 7.29012 3.36035 6.82129C3.36065 6.35271 3.73956 5.97189 4.20703 5.97168ZM16.0693 5.55859C16.5369 5.55882 16.916 5.93954 16.916 6.4082C16.9158 6.87683 16.5368 7.25856 16.0693 7.25879C15.6016 7.25879 15.2229 6.87697 15.2227 6.4082C15.2228 5.9394 15.6016 5.55859 16.0693 5.55859ZM1.23535 3.56543C1.60454 3.56568 1.90325 3.8664 1.90332 4.23633C1.90311 4.60613 1.60445 4.90697 1.23535 4.90723C0.866155 4.90708 0.566621 4.6062 0.566406 4.23633C0.566478 3.86633 0.866067 3.56557 1.23535 3.56543ZM19.0283 3.56543C19.3975 3.56571 19.6962 3.86642 19.6963 4.23633C19.6961 4.60612 19.3974 4.90694 19.0283 4.90723C18.659 4.90723 18.3596 4.60629 18.3594 4.23633C18.3594 3.86624 18.6589 3.56543 19.0283 3.56543Z" fill="#00747E"/>
</svg>
